
      <svg class="img-fluid" id="outputsvg" xmlns="http://www.w3.org/2000/svg" style="transform: matrix(0.769231, 0, 0, 0.769231, 0, 0); transform-origin: 50% 50% 0px; cursor: move; max-height: none; transition: transform 200ms ease-in-out;" width="962" height="290" viewBox="0 0 9620 2900"><g id="l2cgVwgJXKt9dGJgGqr7kfb" fill="rgb(255,255,255)" style="transform: none;"><g style="transform: none;"><path id="p12vVIxxqh" d="M0 1450 l0 -1450 4810 0 4810 0 0 1450 0 1450 -4810 0 -4810 0 0 -1450z m1638 1046 c21 -28 27 -44 177 -481 59 -170 126 -366 150 -435 259 -743 256 -733 205 -760 -34 -18 -1030 -360 -1049 -360 -10 0 -25 8 -34 18 -15 17 -567 1605 -567 1633 0 9 10 25 23 37 23 21 1012 370 1054 371 12 1 30 -10 41 -23z m2389 -557 c223 -84 277 -399 95 -560 -158 -138 -398 -88 -499 104 -24 45 -28 63 -28 142 0 77 4 98 27 147 73 156 244 227 405 167z m1550 1 c59 -21 115 -66 146 -120 l18 -30 -39 0 c-31 0 -43 5 -56 25 -29 44 -86 65 -174 65 -65 0 -85 -4 -112 -23 -47 -31 -71 -77 -77 -147 l-6 -60 239 0 c132 0 245 -4 252 -9 18 -11 2 -94 -32 -168 -71 -152 -253 -215 -397 -137 -220 121 -241 434 -37 565 92 59 181 72 275 39z m887 -10 c154 -59 230 -228 153 -342 -52 -76 -151 -126 -322 -162 -95 -20 -155 -43 -182 -68 -20 -18 -23 -32 -23 -90 0 -59 3 -72 24 -93 37 -37 96 -48 194 -37 98 12 128 29 156 89 21 44 41 53 113 53 35 0 35 0 28 -37 -24 -131 -224 -235 -387 -203 -93 18 -153 47 -199 97 -68 74 -85 144 -53 221 32 76 95 120 234 160 242 71 250 73 280 103 27 28 30 37 30 93 0 105 -46 143 -183 153 -147 10 -245 -39 -265 -132 l-8 -40 -67 -3 c-75 -3 -79 1 -52 65 35 84 99 142 198 179 54 21 75 24 167 20 78 -2 120 -9 164 -26z m1540 9 c40 -14 69 -35 105 -75 28 -31 51 -60 51 -65 0 -5 -16 -9 -36 -9 -27 0 -41 7 -62 31 -36 44 -79 59 -164 59 -132 0 -180 -44 -186 -167 l-4 -76 77 7 c43 4 154 4 247 0 l170 -7 -7 -46 c-8 -56 -52 -155 -89 -198 -15 -18 -56 -47 -91 -64 -56 -27 -72 -31 -127 -27 -161 10 -296 148 -306 314 -15 225 215 401 422 323z m-5166 5 l52 -7 0 -162 0 -163 83 -5 c45 -4 107 -6 138 -7 125 0 244 -63 292 -154 28 -55 31 -174 4 -228 -26 -52 -83 -107 -136 -132 -42 -19 -67 -21 -288 -24 l-243 -3 0 445 0 446 23 0 c12 0 46 -3 75 -6z m1705 -4 l27 0 0 -117 0 -117 32 -33 c24 -25 40 -33 67 -33 36 0 37 3 126 150 l90 149 63 1 c34 0 62 -2 62 -5 0 -3 -54 -86 -120 -185 -81 -121 -120 -189 -120 -207 0 -22 22 -50 103 -131 l102 -104 -55 6 c-55 6 -56 7 -172 126 -99 102 -121 120 -147 120 l-31 0 0 -250 0 -250 -65 0 -65 0 0 439 c0 410 1 440 18 444 9 3 26 3 37 1 11 -2 32 -4 48 -4z m2811 4 l47 -7 -3 -241 -3 -241 -29 -53 c-39 -70 -83 -97 -161 -97 -68 0 -143 31 -168 68 l-14 22 81 -3 c162 -6 167 4 174 326 3 175 8 232 17 232 7 0 33 -3 59 -6z m-404 -223 c0 -227 4 -258 42 -298 l21 -23 -31 0 -32 0 -2 -172 -3 -173 -62 -3 -63 -3 0 446 0 445 65 0 65 0 0 -219z m1560 -220 l0 -438 -37 -7 c-21 -3 -50 -6 -65 -6 l-28 0 0 445 0 445 65 0 65 0 0 -439z m380 159 l0 -280 66 0 65 0 -3 -32 -3 -33 -60 0 -60 0 -3 -60 c-5 -86 2 -102 46 -114 20 -6 49 -11 65 -11 24 0 27 -3 27 -36 l0 -37 -69 5 c-128 9 -190 69 -199 190 l-5 68 -53 0 c-53 0 -54 0 -54 30 0 30 1 30 55 30 l55 0 0 280 0 280 65 0 65 0 0 -280z m-3325 -565 l70 -64 -42 -1 c-40 0 -44 3 -83 59 -22 33 -40 62 -40 65 0 18 33 -3 95 -59z"></path><path id="pmsZYNByu" d="M1327 2149 c-23 -14 -47 -69 -47 -109 0 -102 79 -153 183 -116 l37 14 0 -33 c0 -25 8 -40 35 -64 39 -34 72 -39 137 -21 52 15 68 42 68 117 0 51 -4 67 -24 89 -20 24 -32 28 -90 32 -44 3 -71 0 -81 -8 -13 -11 -15 -8 -15 14 0 31 -16 66 -39 83 -20 15 -139 16 -164 2z"></path><path id="pNPZ9ntWH" d="M900 2013 c-8 -3 -39 -14 -67 -25 -47 -17 -53 -23 -53 -48 0 -16 4 -40 9 -53 9 -22 6 -26 -30 -40 -37 -15 -39 -17 -38 -59 0 -24 9 -65 18 -93 l18 -50 58 0 c58 0 59 -1 70 -35 10 -30 17 -36 46 -38 18 -2 64 7 102 20 l69 23 -6 56 -5 56 32 9 c29 9 32 14 35 51 2 22 -6 67 -17 99 -18 56 -21 59 -55 62 -19 2 -44 -2 -55 -7 -17 -10 -21 -6 -33 32 -13 38 -18 42 -49 44 -19 1 -41 -1 -49 -4z"></path><path id="p11scjaf25" d="M1303 1567 c-460 -161 -463 -162 -463 -190 0 -15 25 -100 56 -190 31 -89 93 -270 139 -402 l83 -240 35 -3 c26 -2 135 32 384 118 191 67 401 140 466 162 l117 40 0 43 c0 27 -29 127 -81 276 -44 129 -104 304 -133 389 l-53 155 -44 2 c-34 1 -146 -34 -506 -160z"></path><path id="p1DfW7QOZO" d="M3790 1854 c-58 -49 -73 -95 -74 -219 0 -123 11 -169 52 -208 37 -36 73 -47 145 -47 137 1 185 55 194 219 9 153 -26 239 -110 270 -16 6 -61 11 -102 11 -65 0 -77 -3 -105 -26z"></path><path id="pw3XLYwF0" d="M5326 1583 l-49 -4 6 -50 c8 -63 38 -112 81 -133 47 -22 160 -21 206 2 45 22 82 91 78 147 l-3 40 -135 1 c-74 0 -157 -1 -184 -3z"></path><path id="pIjDcGIIc" d="M7741 1583 l-33 -4 4 -60 c4 -53 9 -64 41 -97 37 -36 39 -37 125 -40 78 -3 91 -1 121 20 47 32 72 82 69 138 l-3 45 -145 1 c-80 1 -160 -1 -179 -3z"></path><path id="p142wJZlRU" d="M2890 1331 l0 -171 145 0 c219 0 248 18 253 159 3 99 -7 125 -58 155 -29 17 -56 21 -187 24 l-153 4 0 -171z"></path></g></g><g id="lAj7dxiI7oiMckLHQcWw3Y" fill="rgb(2,6,23)" style="transform: none;"><g style="transform: none;"><path id="p7Zz2583J" d="M6159 1983 c-160 -40 -255 -136 -273 -276 l-6 -48 102 3 102 3 8 40 c11 53 60 102 118 118 55 16 162 12 200 -8 73 -38 91 -112 40 -164 -30 -30 -38 -32 -280 -103 -185 -54 -252 -124 -252 -263 0 -73 18 -119 68 -175 45 -50 92 -75 176 -95 216 -51 439 45 476 205 22 95 26 91 -88 89 l-99 -2 -6 -29 c-9 -40 -50 -85 -88 -97 -53 -18 -148 -16 -184 2 -39 21 -53 44 -53 90 0 59 54 91 205 123 258 54 355 136 355 301 0 119 -71 220 -186 263 -88 32 -253 44 -335 23z"></path><path id="pWaYkuIxt" d="M3763 1969 c-67 -26 -137 -94 -171 -167 -25 -52 -27 -68 -27 -177 0 -112 2 -124 27 -172 36 -67 85 -116 151 -150 44 -23 68 -28 152 -31 84 -3 109 0 156 17 113 43 189 139 209 266 30 187 -53 357 -203 413 -78 30 -219 30 -294 1z m204 -130 c79 -29 120 -121 109 -242 -8 -92 -36 -143 -89 -168 -71 -32 -136 -22 -189 28 -38 36 -51 83 -50 178 0 93 20 145 72 189 35 29 95 35 147 15z"></path><path id="puH78EvMP" d="M5369 1976 c-106 -28 -200 -121 -230 -226 -20 -73 -15 -196 10 -262 28 -71 93 -145 162 -183 44 -23 69 -30 135 -33 146 -8 258 49 314 157 45 90 66 233 34 245 -9 3 -121 6 -251 6 l-235 0 7 33 c18 84 78 137 157 137 57 0 120 -29 144 -65 15 -23 22 -25 95 -25 57 0 79 4 79 13 0 22 -57 111 -92 145 -67 64 -212 90 -329 58z m247 -428 c11 -12 -34 -96 -61 -114 -14 -9 -48 -19 -74 -22 -80 -7 -139 32 -161 109 -8 28 -8 28 38 31 79 5 251 2 258 -4z"></path><path id="pEwtalpdP" d="M7786 1975 c-100 -28 -186 -111 -222 -218 -11 -34 -15 -73 -12 -140 3 -80 7 -101 36 -159 36 -73 87 -124 161 -160 35 -18 68 -24 139 -26 88 -4 97 -2 157 27 74 37 107 72 148 159 21 45 30 83 34 140 l6 77 -248 0 -247 0 5 44 c3 24 13 55 24 70 59 80 199 82 265 2 26 -30 29 -31 107 -31 45 0 81 2 81 5 0 19 -49 95 -87 136 -59 63 -127 89 -226 88 -40 0 -94 -7 -121 -14z m247 -448 c-5 -71 -76 -122 -160 -115 -45 4 -60 10 -88 39 -19 19 -37 48 -41 66 -6 30 -5 32 27 35 19 2 86 3 149 2 l115 0 -2 -27z"></path><path id="pdilZYnHV" d="M2710 1503 l0 -478 249 1 c269 2 325 10 389 58 66 48 99 106 111 194 23 162 -52 287 -199 333 -58 18 -155 27 -297 29 l-43 0 0 164 c0 123 -3 165 -13 169 -7 2 -54 5 -105 6 l-92 2 0 -478z m491 -59 c47 -28 61 -58 56 -126 -6 -103 -50 -128 -222 -128 l-115 0 0 141 0 142 124 -5 c99 -4 130 -9 157 -24z"></path><path id="pbA2xh2gn" d="M4410 1500 l0 -478 93 2 92 1 3 253 2 253 123 -126 122 -125 103 2 c56 0 102 4 102 7 0 4 -56 62 -124 130 l-124 124 139 208 c76 115 139 212 139 217 0 8 -216 10 -222 2 -3 -3 -44 -70 -93 -150 -48 -80 -90 -147 -92 -149 -2 -3 -19 10 -38 29 l-34 33 -3 121 -3 121 -92 1 -93 1 0 -477z"></path><path id="p4IKe7IxR" d="M6803 1973 c-10 -4 -13 -109 -13 -479 l0 -475 93 3 92 3 3 174 2 174 35 -36 c48 -49 118 -71 210 -65 92 6 132 29 171 100 l29 53 3 275 3 275 -90 3 -91 3 -1 -28 c-1 -15 -2 -120 -3 -233 -3 -275 -14 -300 -135 -300 -51 0 -90 22 -114 63 -8 15 -14 96 -17 257 l-5 235 -80 1 c-44 1 -86 0 -92 -3z"></path><path id="p5AO1H5vs" d="M8350 1497 l0 -478 93 3 92 3 0 475 0 475 -92 0 -93 1 0 -479z"></path><path id="p1EwXiE6w5" d="M8730 1693 l0 -283 -55 0 -55 0 0 -64 0 -65 54 3 54 3 4 -66 c6 -79 34 -129 89 -161 42 -23 134 -38 197 -32 l42 4 0 70 0 71 -29 -6 c-16 -3 -45 -2 -65 4 -39 11 -50 33 -44 85 3 28 4 29 63 29 l60 0 3 63 3 62 -65 0 -66 0 -2 282 -3 282 -92 1 -93 1 0 -283z"></path><path id="p1FfqdnfS2" d="M5400 1185 c0 -3 27 -46 60 -95 l61 -90 99 0 c55 0 100 3 99 8 0 4 -44 46 -97 94 l-97 87 -62 1 c-35 0 -63 -2 -63 -5z"></path></g></g><g id="lqO5CMbhajucla9lcpc0wx" fill="rgb(125,77,255)" style="transform: none;"><g style="transform: none;"><path id="pcI3cq4Q1" d="M1055 2379 c-445 -154 -524 -184 -547 -209 -16 -17 -28 -40 -28 -53 0 -32 559 -1649 577 -1669 38 -42 54 -38 608 153 361 125 537 190 553 206 14 14 22 34 22 57 0 30 -75 258 -245 746 -24 69 -91 265 -150 435 -157 459 -157 458 -186 488 -18 17 -38 27 -56 26 -15 0 -262 -81 -548 -180z m406 -262 c42 -32 50 -90 18 -131 -45 -57 -127 -47 -155 20 -12 29 -12 39 0 68 8 19 22 39 33 45 24 14 84 13 104 -2z m226 -122 c31 -36 31 -88 -2 -120 -13 -14 -31 -25 -39 -25 -8 0 -21 -3 -29 -6 -8 -3 -30 8 -51 26 -46 41 -49 83 -9 130 24 29 31 32 67 27 27 -4 49 -15 63 -32z m-717 -60 c14 -49 22 -53 77 -30 20 8 38 13 41 10 11 -10 43 -118 39 -129 -3 -7 -23 -18 -46 -25 -45 -13 -48 -21 -25 -76 8 -20 14 -38 12 -39 -15 -11 -130 -46 -137 -42 -4 3 -14 26 -21 51 -7 25 -13 45 -15 45 -1 0 -23 -7 -49 -16 -27 -9 -51 -13 -55 -8 -9 9 -41 102 -41 116 0 5 20 17 45 28 25 11 45 23 45 28 0 5 -6 28 -14 50 l-15 41 52 19 c99 36 90 38 107 -23z m906 -395 c29 -85 89 -260 133 -389 45 -129 81 -240 81 -246 0 -7 -53 -31 -117 -53 -65 -22 -275 -95 -467 -162 -191 -67 -352 -118 -356 -113 -4 4 -43 114 -88 243 -44 129 -105 307 -135 395 -31 88 -55 160 -54 161 26 13 926 322 936 321 9 -1 34 -62 67 -157z"></path><path id="pzsFekx3j" d="M1092 1042 l-10 -28 234 -115 c210 -103 234 -112 243 -97 6 10 11 23 11 28 0 6 -102 61 -227 123 -126 61 -231 113 -234 115 -4 1 -11 -10 -17 -26z"></path><path id="prpuNGFtL" d="M1130 871 c-5 -11 -10 -22 -10 -25 0 -4 61 -36 136 -72 108 -52 138 -63 145 -53 21 33 7 46 -116 107 -69 34 -129 62 -135 62 -5 0 -14 -9 -20 -19z"></path></g></g></svg>